# xmcd
#
# Track frame offsets:
#	150
#	13112
#	22725
#	35026
#	49056
#	67949
#	80489
#	97379
#	107854
#	122328
#	133439
#	145897
#	155563
#	171847
#	181857
#	190684
#	199943
#
# Disc length: 2811 seconds
#
# Revision: 1
# Processed by: cddbd v1.4PL0 Copyright (c) Steve Scherf et al.
# Submitted via: audiograbber 1.82.01
#
DISCID=ee0af911
DTITLE=Eric Lenz - One Man Blues Band
DYEAR=1900
DGENRE=Folkblues
TTITLE0=The Blues Came From The Delta
TTITLE1=High And Lonesome
TTITLE2=San Francisco Bay Blues
TTITLE3=Prodigal Son 
TTITLE4=Elmore's Grave
TTITLE5=Got My Motor Running
TTITLE6=Crawling King Snake
TTITLE7=Lady Luck
TTITLE8=Tell Me Baby Now
TTITLE9=Midnite Traveller
TTITLE10=High Heel Sneekers
TTITLE11=My Baby Thrills Me
TTITLE12=Tamales Song
TTITLE13=In The Mood For Love
TTITLE14=The Sun Is Shining
TTITLE15=Boom Boom Boom Boom
TTITLE16=Sweet Home Chicago
EXTD=
EXTT0=
EXTT1=
EXTT2=
EXTT3=
EXTT4=
EXTT5=
EXTT6=
EXTT7=
EXTT8=
EXTT9=
EXTT10=
EXTT11=
EXTT12=
EXTT13=
EXTT14=
EXTT15=
EXTT16=
PLAYORDER=
